korean_heart coordinate motion generated from LLM joint_angles
version=1
nRows=33
nColumns=29
inDegrees=yes
endheader
time	elbow_flexion	pro_sup	rotaxis_auxprfem_r3	deviation	auxprrud_auxdrfem_r3	auxdrfem_auxdrrud_r1	MCP2_lateral	MCP2_flex	PIP_flex	DIP_flex	MCP2M_lateral	MCP2M_flex	MPIP_flex	MDIP_flex	RCP2M_lateral	RCP2M_flex	RPIP_flex	RDIP_flex	LCP2M_lateral	LCP2M_flex	LPIP_flex	LDIP_flex	thumb_abd	thumb_flex	TCP2M_lateral	TCP2M_flex	TCP2M2_flex	flexion
0.666667	0.000000	0.000000	0.000000	0.000000	0.000000	0.000000	0.000000	0.000000	0.000000	0.000000	0.000000	0.000000	0.000000	0.000000	0.000000	77.942286	77.942286	77.942286	0.000000	77.942286	77.942286	77.942286	38.971143	38.971143	0.000000	38.971143	38.971143	0.000000
0.673333	0.000000	0.000000	0.000000	0.000000	0.000000	0.000000	0.000000	0.000000	0.000000	0.000000	0.000000	0.000000	0.000000	0.000000	0.000000	76.982783	76.982783	76.982783	0.000000	76.982783	76.982783	76.982783	38.491392	38.491392	0.000000	38.491392	38.491392	0.000000
0.680000	0.000000	0.000000	0.000000	0.000000	0.000000	0.000000	0.000000	0.000000	0.000000	0.000000	0.000000	0.000000	0.000000	0.000000	0.000000	75.989513	75.989513	75.989513	0.000000	75.989513	75.989513	75.989513	37.994757	37.994757	0.000000	37.994757	37.994757	0.000000
0.686667	0.000000	0.000000	0.000000	0.000000	0.000000	0.000000	0.000000	0.000000	0.000000	0.000000	0.000000	0.000000	0.000000	0.000000	0.000000	74.962912	74.962912	74.962912	0.000000	74.962912	74.962912	74.962912	37.481456	37.481456	0.000000	37.481456	37.481456	0.000000
0.693333	0.000000	0.000000	0.000000	0.000000	0.000000	0.000000	0.000000	0.000000	0.000000	0.000000	0.000000	0.000000	0.000000	0.000000	0.000000	73.903429	73.903429	73.903429	0.000000	73.903429	73.903429	73.903429	36.951714	36.951714	0.000000	36.951714	36.951714	0.000000
0.700000	0.000000	0.000000	0.000000	0.000000	0.000000	0.000000	0.000000	0.000000	0.000000	0.000000	0.000000	0.000000	0.000000	0.000000	0.000000	72.811529	72.811529	72.811529	0.000000	72.811529	72.811529	72.811529	36.405765	36.405765	0.000000	36.405765	36.405765	0.000000
0.706667	0.000000	0.000000	0.000000	0.000000	0.000000	0.000000	0.000000	0.000000	0.000000	0.000000	0.000000	0.000000	0.000000	0.000000	0.000000	71.687693	71.687693	71.687693	0.000000	71.687693	71.687693	71.687693	35.843846	35.843846	0.000000	35.843846	35.843846	0.000000
0.713333	0.000000	0.000000	0.000000	0.000000	0.000000	0.000000	0.000000	0.000000	0.000000	0.000000	0.000000	0.000000	0.000000	0.000000	0.000000	70.532411	70.532411	70.532411	0.000000	70.532411	70.532411	70.532411	35.266206	35.266206	0.000000	35.266206	35.266206	0.000000
0.720000	0.000000	0.000000	0.000000	0.000000	0.000000	0.000000	0.000000	0.000000	0.000000	0.000000	0.000000	0.000000	0.000000	0.000000	0.000000	69.346192	69.346192	69.346192	0.000000	69.346192	69.346192	69.346192	34.673096	34.673096	0.000000	34.673096	34.673096	0.000000
0.726667	0.000000	0.000000	0.000000	0.000000	0.000000	0.000000	0.000000	0.000000	0.000000	0.000000	0.000000	0.000000	0.000000	0.000000	0.000000	68.129555	68.129555	68.129555	0.000000	68.129555	68.129555	68.129555	34.064778	34.064778	0.000000	34.064778	34.064778	0.000000
0.733333	0.000000	0.000000	0.000000	0.000000	0.000000	0.000000	0.000000	0.000000	0.000000	0.000000	0.000000	0.000000	0.000000	0.000000	0.000000	66.883034	66.883034	66.883034	0.000000	66.883034	66.883034	66.883034	33.441517	33.441517	0.000000	33.441517	33.441517	0.000000
0.740000	0.000000	0.000000	0.000000	0.000000	0.000000	0.000000	0.000000	0.000000	0.000000	0.000000	0.000000	0.000000	0.000000	0.000000	0.000000	65.607176	65.607176	65.607176	0.000000	65.607176	65.607176	65.607176	32.803588	32.803588	0.000000	32.803588	32.803588	0.000000
0.746667	0.000000	0.000000	0.000000	0.000000	0.000000	0.000000	0.000000	0.000000	0.000000	0.000000	0.000000	0.000000	0.000000	0.000000	0.000000	64.302541	64.302541	64.302541	0.000000	64.302541	64.302541	64.302541	32.151271	32.151271	0.000000	32.151271	32.151271	0.000000
0.753333	0.000000	0.000000	0.000000	0.000000	0.000000	0.000000	0.000000	0.000000	0.000000	0.000000	0.000000	0.000000	0.000000	0.000000	0.000000	62.969701	62.969701	62.969701	0.000000	62.969701	62.969701	62.969701	31.484850	31.484850	0.000000	31.484850	31.484850	0.000000
0.760000	0.000000	0.000000	0.000000	0.000000	0.000000	0.000000	0.000000	0.000000	0.000000	0.000000	0.000000	0.000000	0.000000	0.000000	0.000000	61.609240	61.609240	61.609240	0.000000	61.609240	61.609240	61.609240	30.804620	30.804620	0.000000	30.804620	30.804620	0.000000
0.766667	0.000000	0.000000	0.000000	0.000000	0.000000	0.000000	0.000000	0.000000	0.000000	0.000000	0.000000	0.000000	0.000000	0.000000	0.000000	60.221755	60.221755	60.221755	0.000000	60.221755	60.221755	60.221755	30.110877	30.110877	0.000000	30.110877	30.110877	0.000000
0.773333	0.000000	0.000000	0.000000	0.000000	0.000000	0.000000	0.000000	0.000000	0.000000	0.000000	0.000000	0.000000	0.000000	0.000000	0.000000	58.807854	58.807854	58.807854	0.000000	58.807854	58.807854	58.807854	29.403927	29.403927	0.000000	29.403927	29.403927	0.000000
0.780000	0.000000	0.000000	0.000000	0.000000	0.000000	0.000000	0.000000	0.000000	0.000000	0.000000	0.000000	0.000000	0.000000	0.000000	0.000000	57.368159	57.368159	57.368159	0.000000	57.368159	57.368159	57.368159	28.684080	28.684080	0.000000	28.684080	28.684080	0.000000
0.786667	0.000000	0.000000	0.000000	0.000000	0.000000	0.000000	0.000000	0.000000	0.000000	0.000000	0.000000	0.000000	0.000000	0.000000	0.000000	55.903300	55.903300	55.903300	0.000000	55.903300	55.903300	55.903300	27.951650	27.951650	0.000000	27.951650	27.951650	0.000000
0.793333	0.000000	0.000000	0.000000	0.000000	0.000000	0.000000	0.000000	0.000000	0.000000	0.000000	0.000000	0.000000	0.000000	0.000000	0.000000	54.413920	54.413920	54.413920	0.000000	54.413920	54.413920	54.413920	27.206960	27.206960	0.000000	27.206960	27.206960	0.000000
0.800000	0.000000	0.000000	0.000000	0.000000	0.000000	0.000000	0.000000	0.000000	0.000000	0.000000	0.000000	0.000000	0.000000	0.000000	0.000000	52.900673	52.900673	52.900673	0.000000	52.900673	52.900673	52.900673	26.450336	26.450336	0.000000	26.450336	26.450336	0.000000
0.806667	0.000000	0.000000	0.000000	0.000000	0.000000	0.000000	0.000000	0.000000	0.000000	0.000000	0.000000	0.000000	0.000000	0.000000	0.000000	51.364221	51.364221	51.364221	0.000000	51.364221	51.364221	51.364221	25.682111	25.682111	0.000000	25.682111	25.682111	0.000000
0.813333	0.000000	0.000000	0.000000	0.000000	0.000000	0.000000	0.000000	0.000000	0.000000	0.000000	0.000000	0.000000	0.000000	0.000000	0.000000	49.805239	49.805239	49.805239	0.000000	49.805239	49.805239	49.805239	24.902620	24.902620	0.000000	24.902620	24.902620	0.000000
0.820000	0.000000	0.000000	0.000000	0.000000	0.000000	0.000000	0.000000	0.000000	0.000000	0.000000	0.000000	0.000000	0.000000	0.000000	0.000000	48.224412	48.224412	48.224412	0.000000	48.224412	48.224412	48.224412	24.112206	24.112206	0.000000	24.112206	24.112206	0.000000
0.826667	0.000000	0.000000	0.000000	0.000000	0.000000	0.000000	0.000000	0.000000	0.000000	0.000000	0.000000	0.000000	0.000000	0.000000	0.000000	46.622431	46.622431	46.622431	0.000000	46.622431	46.622431	46.622431	23.311215	23.311215	0.000000	23.311215	23.311215	0.000000
0.833333	0.000000	0.000000	0.000000	0.000000	0.000000	0.000000	0.000000	0.000000	0.000000	0.000000	0.000000	0.000000	0.000000	0.000000	0.000000	45.000000	45.000000	45.000000	0.000000	45.000000	45.000000	45.000000	22.500000	22.500000	0.000000	22.500000	22.500000	0.000000
0.840000	0.000000	0.000000	0.000000	0.000000	0.000000	0.000000	0.000000	0.000000	0.000000	0.000000	0.000000	0.000000	0.000000	0.000000	0.000000	43.357831	43.357831	43.357831	0.000000	43.357831	43.357831	43.357831	21.678915	21.678915	0.000000	21.678915	21.678915	0.000000
0.846667	0.000000	0.000000	0.000000	0.000000	0.000000	0.000000	0.000000	0.000000	0.000000	0.000000	0.000000	0.000000	0.000000	0.000000	0.000000	41.696643	41.696643	41.696643	0.000000	41.696643	41.696643	41.696643	20.848322	20.848322	0.000000	20.848322	20.848322	0.000000
0.853333	0.000000	0.000000	0.000000	0.000000	0.000000	0.000000	0.000000	0.000000	0.000000	0.000000	0.000000	0.000000	0.000000	0.000000	0.000000	40.017166	40.017166	40.017166	0.000000	40.017166	40.017166	40.017166	20.008583	20.008583	0.000000	20.008583	20.008583	0.000000
0.860000	0.000000	0.000000	0.000000	0.000000	0.000000	0.000000	0.000000	0.000000	0.000000	0.000000	0.000000	0.000000	0.000000	0.000000	0.000000	38.320136	38.320136	38.320136	0.000000	38.320136	38.320136	38.320136	19.160068	19.160068	0.000000	19.160068	19.160068	0.000000
0.866667	0.000000	0.000000	0.000000	0.000000	0.000000	0.000000	0.000000	0.000000	0.000000	0.000000	0.000000	0.000000	0.000000	0.000000	0.000000	36.606298	36.606298	36.606298	0.000000	36.606298	36.606298	36.606298	18.303149	18.303149	0.000000	18.303149	18.303149	0.000000
0.873333	0.000000	0.000000	0.000000	0.000000	0.000000	0.000000	0.000000	0.000000	0.000000	0.000000	0.000000	0.000000	0.000000	0.000000	0.000000	34.876403	34.876403	34.876403	0.000000	34.876403	34.876403	34.876403	17.438201	17.438201	0.000000	17.438201	17.438201	0.000000
0.880000	0.000000	0.000000	0.000000	0.000000	0.000000	0.000000	0.000000	0.000000	0.000000	0.000000	0.000000	0.000000	0.000000	0.000000	0.000000	33.131210	33.131210	33.131210	0.000000	33.131210	33.131210	33.131210	16.565605	16.565605	0.000000	16.565605	16.565605	0.000000
